# xmcd CD database file
#
# Track frame offsets:
#	150
#	20850
#	37500
#	52350
#	66900
#	83850
#	99075
#	113250
#	125850
#	139050
#	156225
#	173025
#	189000
#	199425
#	215700
#	228450
#
# Disc length: 3208 seconds
#
# Revision: 0
# Processed by: cddbd v1.4PL0 Copyright (c) Steve Scherf et al.
# Submitted via: CDex 1.50Beta7
#
DISCID=df0c8610
DTITLE=Party time country - Party time country
DYEAR=1900
DGENRE=Country
TTITLE0=How do I live
TTITLE1=two pina coladas
TTITLE2=youre still the one
TTITLE3=i like it i love it
TTITLE4=strawberry wine
TTITLE5=the shake
TTITLE6=valentine
TTITLE7=then what
TTITLE8=this kiss
TTITLE9=i dont want to miss a thing
TTITLE10=that dont impress me much
TTITLE11=you were mine
TTITLE12=longneck bottle
TTITLE13=no place that far
TTITLE14=go away
TTITLE15=texas size heartache
EXTD=
EXTT0=
EXTT1=
EXTT2=
EXTT3=
EXTT4=
EXTT5=
EXTT6=
EXTT7=
EXTT8=
EXTT9=
EXTT10=
EXTT11=
EXTT12=
EXTT13=
EXTT14=
EXTT15=
PLAYORDER=
